#!OML:ASF E:/inclinewalkrobotboard/Project1/Captureday1/Session1/subject1.ASF
:FULLY-SPECIFIED
:DEGREES
208
root 0 0 0 -2.181929990443917 -3.768293811541536 0.4909800843677961
lowerback 7.4852367461445715 1.6058932216076032 -2.4924755568410992
upperback 1.8578404125313432 1.9958380372313842 -0.08418919550226234
thorax -2.2992347470253818 1.0483946925571035 1.19383371181575
lowerneck -9.232827644231183 -5.509046205630647 -6.433999211895144
upperneck 30.760938018542827 -8.620545041716564 6.09080442257791
head 11.523100953934119 -3.932056175884812 2.0292521956776444
rclavicle -2.5695618845960886E-15 1.7322535020636689E-15
rhumerus -9.326905548864026 3.2557902985091944 -79.84794961412437
rradius 50.836658411731655
rwrist -21.07979124966955
rhand -42.07056840559201 15.596497297713547
rfingers 7.125019999999951
rthumb -14.924199949400688 -13.815948104125749
lclavicle -6.595708674070654E-15 1.3866095237985427E-15
lhumerus -30.941275265899446 11.606016232280648 77.27025464213887
lradius 24.741474765296584
lwrist -4.879126954142497
lhand -24.0864311624328 22.012024780787645
lfingers 7.125019999999954
lthumb 2.394916670065732 51.94799906253669
rfemur 2.2594015091105155 8.445953770683538 34.64064764302436
rtibia 26.499594880254612
rfoot -20.99229337551826 -9.166119634367831
rtoes 4.348502509163509
lfemur -31.566826651288146 1.975347007231889 -12.87307368743638
ltibia 45.97892741003531
lfoot -5.617108011578598 -3.1156776279458906
ltoes -6.185521629324978
209
root 0 0 0 -2.135422157930374 -3.728211173984619 0.49935851846024776
lowerback 7.543896936422097 1.6142395881696676 -2.513595442833462
upperback 1.891743158899549 2.003982447464358 -0.08397037101932436
thorax -2.298781000351917 1.053278419520159 1.2036348881279326
lowerneck -9.219417709087752 -5.531299537073948 -6.4672813323715
upperneck 30.762908936669426 -8.644354527214249 6.155955276960903
head 11.526307274845935 -3.9439321460357535 2.054387690857133
rclavicle -2.331497672160999E-15 1.682729213872327E-15
rhumerus -9.304099572609097 3.133065912462718 -79.87075305896485
rradius 50.51112644883256
rwrist -21.068082075799197
rhand -42.06739499611183 15.692899962109284
rfingers 7.12501999999995
rthumb -14.91971957026882 -13.71993248549197
lclavicle -6.458010021462011E-15 1.3648837573773585E-15
lhumerus -30.992825212177813 11.723292938710971 77.14976763456562
lradius 24.73779701299818
lwrist -4.886575503685207
lhand -24.201686504815093 21.956150665182758
lfingers 7.125019999999955
lthumb 2.284223156490511 51.893357322886565
rfemur 2.4932157096867695 8.460306437029555 34.624557479219156
rtibia 26.62897990220965
rfoot -20.855818546962478 -9.171051771292632
rtoes 3.910788847172205
lfemur -32.112595411282335 1.4837409983779128 -13.002842705579706
ltibia 42.43166403665107
lfoot -5.4550004275895025 -3.2481097624329056
ltoes -5.621977577786333
210
root 0 0 0 -2.112208505036371 -3.718175486351214 0.5054779726547598
lowerback 7.5690383585300935 1.6157902446559416 -2.5278481093827647
upperback 1.914982928627016 2.004635133571445 -0.08012789241113516
thorax -2.2895708679305953 1.0543127110413948 1.215605742405789
lowerneck -9.199015798495758 -5.5429676383014765 -6.481564270179399
upperneck 30.828904032147307 -8.662746228582332 6.1779517735478935
head 11.54598546468694 -3.953046685755778 2.0615761723070416
rclavicle -2.0578432740124753E-15 1.6407902735216513E-15
rhumerus -9.364573399136056 3.1392089176284896 -79.89185379784203
rradius 50.34551258484043
rwrist -21.06755892796357
rhand -42.041866578904084 15.768230339016888
rfingers 7.1250199999999495
rthumb -14.893138506078532 -13.647549872891085
lclavicle -6.247095528914753E-15 1.334363196432751E-15
lhumerus -31.01961893660705 11.83623215292426 77.06211365666924
lradius 24.73907838342893
lwrist -4.888294386499659
lhand -24.307061032914532 21.897999744627796
lfingers 7.125019999999956
lthumb 2.1831516381126757 51.83693785297047
rfemur 2.248302282555461 8.438852935040046 34.581202106275484
rtibia 27.125543183766965
rfoot -20.493643362138197 -9.12723557568704
rtoes 3.6012620273479907
lfemur -32.069865914754686 1.166381029237316 -13.252276843993101
ltibia 40.38217342057426
lfoot -4.986499366771049 -3.733358312245114
ltoes -5.079983911061188
211
root 0 0 0 -2.9670748591417535 -4.202289873981549 0.1134132046938055
lowerback 7.440732808791677 1.4930374601153815 -1.6414776200494
upperback 0.4487398655608254 1.8640458037233005 -0.4985900446712231
thorax -3.7419223502028096 0.9368116007916728 0.2547829115012291
lowerneck -10.520983408521278 -4.8252939930395655 -5.746877824591135
upperneck 20.7083667816981 -7.039911087508496 6.485692166109222
head 8.429455491135332 -3.1905557004580545 2.3893981217412703
rclavicle -4.573481634546295E-15 2.4350689328917386E-15
rhumerus -2.8321200982672448 2.2704847860579926 -75.76901531073486
rradius 61.45177609216171
rwrist -18.64202976206119
rhand -41.48785036553682 13.763489439353046
rfingers 7.125019999999939
rthumb -14.344263325629917 -15.65528013803001
lclavicle -5.841685734623622E-15 2.7310344169137577E-15
lhumerus -32.92004231537926 13.245810562744674 73.8094596386803
lradius 23.718169024657882
lwrist -6.333384871115331
lhand -25.131834293919606 21.712699794202717
lfingers 7.125019999999968
lthumb 1.3880015087044555 51.66644999103091
rfemur -17.587059744461065 4.771040521745505 29.96565611390121
rtibia 51.05542567226027
rfoot -0.5488676752813189 -3.9438793908153924
rtoes 14.472262309027602
lfemur -19.91396372466078 1.405609504709302 -16.07216079931429
ltibia 53.48611343738799
lfoot 2.546381829122705 -10.376993207688196
ltoes -3.740270307907605
